<svg id="Capa_1" data-name="Capa 1" xmlns="http://www.w3.org/2000/svg" xmlns:xlink="http://www.w3.org/1999/xlink" viewBox="0 0 144 111.5"><defs><style>.cls-1{fill:none;}.cls-2{fill:#e4572e;}.cls-3{clip-path:url(#clip-path);}.cls-4{fill:#fff;}</style><clipPath id="clip-path" transform="translate(-408.62 -224)"><rect class="cls-1" x="425" y="224" width="110" height="111.5"/></clipPath></defs><title>favicon</title><rect class="cls-2" x="16.38" width="110" height="111.5" rx="10"/><g class="cls-3"><path class="cls-4" d="M479.78,311.41A65.67,65.67,0,0,0,465.94,300a58.08,58.08,0,0,0-8-3.87,54.19,54.19,0,0,0-26-3.08,64.83,64.83,0,0,0-8.65,1.58c-1.43.34-2.84.74-4.23,1.19s-2.8,1-4,1.5l-6.44,2.84,4-5.75c2.27-3.24,4.5-6.52,6.8-9.74l6.87-9.69c2.28-3.24,4.62-6.44,6.94-9.65s4.62-6.43,7-9.61l.32-.44.4-.13a32.47,32.47,0,0,1,5.42-1.29,38.17,38.17,0,0,1,5.44-.48,36.21,36.21,0,0,1,10.76,1.47,32.09,32.09,0,0,1,9.61,4.85,35.3,35.3,0,0,1,7.41,7.59,39.21,39.21,0,0,0-8.05-6.64,31.88,31.88,0,0,0-9.49-3.84,33.85,33.85,0,0,0-10.13-.74,38.74,38.74,0,0,0-5,.69,30.06,30.06,0,0,0-4.77,1.37l.72-.57c-2.18,3.3-4.43,6.56-6.66,9.84s-4.44,6.55-6.71,9.8L422.7,287c-2.25,3.27-4.57,6.48-6.85,9.71l-2.42-2.9a46,46,0,0,1,4.48-1.63q2.23-.7,4.5-1.23a65.16,65.16,0,0,1,9.2-1.43,59.06,59.06,0,0,1,9.31-.07,58.33,58.33,0,0,1,9.2,1.45,51.78,51.78,0,0,1,8.77,3.07,52.87,52.87,0,0,1,8,4.59A56.63,56.63,0,0,1,479.78,311.41Z" transform="translate(-408.62 -224)"/><path class="cls-4" d="M481.47,311.41a56.38,56.38,0,0,1,12.87-12.88,52.49,52.49,0,0,1,8-4.59,51.78,51.78,0,0,1,8.77-3.07,58,58,0,0,1,9.19-1.45,59.05,59.05,0,0,1,9.31.07,64.94,64.94,0,0,1,9.2,1.43c1.52.35,3,.76,4.51,1.23a45.81,45.81,0,0,1,4.47,1.63l-2.41,2.9c-2.28-3.23-4.61-6.44-6.85-9.71l-6.78-9.75c-2.27-3.25-4.48-6.53-6.72-9.8s-4.47-6.54-6.66-9.84l.73.57a29.88,29.88,0,0,0-4.78-1.37,38.5,38.5,0,0,0-5-.69,33.78,33.78,0,0,0-10.12.74,31.94,31.94,0,0,0-9.5,3.84,39.15,39.15,0,0,0-8,6.64,35.49,35.49,0,0,1,7.4-7.59,32.21,32.21,0,0,1,9.61-4.85,36.28,36.28,0,0,1,10.77-1.47,38.3,38.3,0,0,1,5.44.48,32.13,32.13,0,0,1,5.41,1.29l.41.13.32.44c2.36,3.18,4.66,6.4,7,9.61s4.65,6.41,6.93,9.65l6.87,9.69c2.31,3.22,4.53,6.5,6.8,9.74l4,5.75-6.43-2.84c-1.23-.54-2.66-1-4-1.5s-2.8-.85-4.22-1.19a65.42,65.42,0,0,0-8.65-1.58,59.23,59.23,0,0,0-17.53.64,58.46,58.46,0,0,0-8.47,2.44,57.53,57.53,0,0,0-8,3.87A65.42,65.42,0,0,0,481.47,311.41Z" transform="translate(-408.62 -224)"/><path class="cls-4" d="M481,316.81a78.84,78.84,0,0,0-14.25-10.73,62.11,62.11,0,0,0-7.93-3.63,57,57,0,0,0-8.37-2.29,64.75,64.75,0,0,0-17.44-.71,88.34,88.34,0,0,0-17.54,3.5,48.57,48.57,0,0,1,17.1-6.59,50,50,0,0,1,18.62-.13,48.12,48.12,0,0,1,9,2.69,46.78,46.78,0,0,1,8.21,4.52A46,46,0,0,1,481,316.81Z" transform="translate(-408.62 -224)"/><path class="cls-4" d="M480.38,316.81a44.66,44.66,0,0,1,20.8-17.89,47.9,47.9,0,0,1,9-2.69,50,50,0,0,1,18.61.13A48.7,48.7,0,0,1,545.91,303a88.63,88.63,0,0,0-17.54-3.5,64.75,64.75,0,0,0-17.44.71,56.31,56.31,0,0,0-8.37,2.29,61.61,61.61,0,0,0-7.94,3.63A78.77,78.77,0,0,0,480.38,316.81Z" transform="translate(-408.62 -224)"/></g></svg>