<svg id="Capa_1" data-name="Capa 1" xmlns="http://www.w3.org/2000/svg" xmlns:xlink="http://www.w3.org/1999/xlink" viewBox="0 0 490.65 111.5"><defs><style>.cls-1{fill:none;}.cls-2{fill:#fff;}.cls-3{fill:#e4572e;}.cls-4{clip-path:url(#clip-path);}</style><clipPath id="clip-path" transform="translate(-53.62 -198)"><rect class="cls-1" x="70" y="198" width="110" height="111.5"/></clipPath></defs><title>logo</title><path class="cls-2" d="M215.21,284.93a28.64,28.64,0,0,1-1.72-6.34A64.1,64.1,0,0,1,213,270a95.62,95.62,0,0,1,1.18-13.53q3.92-26.87,24.38-26.86c5.27,0,9.29,1.81,12.09,5.42s4.19,8.31,4.19,14.08a128.1,128.1,0,0,1-1.08,16.81,1.53,1.53,0,0,1-1.66,1.5l-26.54.92c0,.53,0,1.25,0,2.14q0,6.07,2.12,9.62a7,7,0,0,0,6.42,3.54,24.5,24.5,0,0,0,8-1.26,24.41,24.41,0,0,1,4.32-1.26,1.63,1.63,0,0,1,1.13.43,1.51,1.51,0,0,1,.48,1.18l-1.07,9.45a1.76,1.76,0,0,1-.3,1.05,2.84,2.84,0,0,1-.94.51,45.07,45.07,0,0,1-12.51,1.88,24,24,0,0,1-9.35-1.45,15,15,0,0,1-5.34-3.73A18.44,18.44,0,0,1,215.21,284.93Zm11.68-30.11-.48,3.44,14-.7a1.89,1.89,0,0,0,1.18-.32c.54-.54.81-2,.81-4.43a34.62,34.62,0,0,0-.25-5.1,15.19,15.19,0,0,0-.83-3c-.82-2.29-2.23-3.43-4.21-3.43a9.18,9.18,0,0,0-4.7,1Q228.61,244.62,226.89,254.82Z" transform="translate(-53.62 -198)"/><path class="cls-2" d="M309.18,293.87c0,.61-.47.92-1.4.92l-11.55.42a1.23,1.23,0,0,1-1.18-1L283.5,254l-4.45,39.54a1.38,1.38,0,0,1-1.45,1.34l-11.07.37c-.75,0-1.13-.33-1.13-1l9.19-81.26a1.81,1.81,0,0,1,.35-.91,1.5,1.5,0,0,1,1-.33l10.8-.37c.93,0,1.39.46,1.39,1.29L284,248.75,299.56,213a1.92,1.92,0,0,1,1.72-1.29l11.23-.37c.93.07,1.4.45,1.4,1.13a3.14,3.14,0,0,1-.38,1.39l-17.35,36.47,12.95,43A2.53,2.53,0,0,1,309.18,293.87Z" transform="translate(-53.62 -198)"/><path class="cls-2" d="M345.81,293.87l.43-4.13a21.41,21.41,0,0,1-14.72,5.85q-6.18,0-9.1-4.51a20.34,20.34,0,0,1-2.93-11.28,27.8,27.8,0,0,1,.22-3.06l5.1-45a1.33,1.33,0,0,1,1.34-1.34L337,230c.75.07,1.13.45,1.13,1.13l-4.84,42.38a24.39,24.39,0,0,0-.16,2.57c0,3,.59,5,1.75,6a7.9,7.9,0,0,0,5.26,1.5,18.87,18.87,0,0,0,7-1.34l5.69-50.49a1.33,1.33,0,0,1,1.34-1.34l10.85-.38c.76.08,1.13.45,1.13,1.13l-7,62.14a1.45,1.45,0,0,1-1.45,1.4l-10.47.48C346.27,295.18,345.81,294.73,345.81,293.87Z" transform="translate(-53.62 -198)"/><path class="cls-2" d="M411.18,243.76l-5.75-.59A22.68,22.68,0,0,0,393.72,246l-5.32,47.37c-.14.9-.59,1.38-1.34,1.46l-10.85.42c-.79-.07-1.18-.41-1.18-1l7.09-62.46a1.4,1.4,0,0,1,1.34-1.29l10.47-.38c1,0,1.45.51,1.45,1.4l-.64,5.53a35.6,35.6,0,0,1,6.66-5.45,12.34,12.34,0,0,1,6.47-2,34.36,34.36,0,0,1,5,.27,1.33,1.33,0,0,1,1.13,1.5,71.61,71.61,0,0,1-1.24,11A1.48,1.48,0,0,1,411.18,243.76Z" transform="translate(-53.62 -198)"/><path class="cls-2" d="M447.05,242.58l-6.06-.27a6.33,6.33,0,0,0-4.06,1.18,4.14,4.14,0,0,0-1.48,3.41,17.15,17.15,0,0,0,.81,4.92A43.08,43.08,0,0,0,440,260.2c1.77,3.18,3,5.44,3.68,6.76a26.15,26.15,0,0,1,3.12,11.77q0,8.1-4.76,12.48t-14.42,4.38a45.21,45.21,0,0,1-7.63-.51,11,11,0,0,1-3.14-.8,1.35,1.35,0,0,1-.29-.95l1.39-9.93c.07-.9.39-1.34.94-1.34a15.94,15.94,0,0,1,3.2.59,17.48,17.48,0,0,0,4.13.59q6.56,0,6.56-5.21a15.46,15.46,0,0,0-1.59-6.93c-1.05-2.15-2.2-4.37-3.43-6.66s-2.2-4.13-2.88-5.51a37.63,37.63,0,0,1-2.12-5.72,23.93,23.93,0,0,1-1.1-6.87q0-7.51,4.48-12.14t13.08-4.62a53.54,53.54,0,0,1,8.65.54c.89.14,1.34.61,1.34,1.39L448,241.07C448,242.08,447.7,242.58,447.05,242.58Z" transform="translate(-53.62 -198)"/><path class="cls-2" d="M477.54,295.59q-9.54,0-14-5.72t-4.43-16.68a102.84,102.84,0,0,1,1.13-13.32,116.63,116.63,0,0,1,2.09-12,38,38,0,0,1,2.74-7.3,20.86,20.86,0,0,1,4.19-5.88q5.32-5.16,14.4-5.16,12.88,0,16.7,9.45a32.65,32.65,0,0,1,2,12.22,105.24,105.24,0,0,1-1.1,14.85,107.94,107.94,0,0,1-2.07,11.36,37.39,37.39,0,0,1-2.71,7.2,20.56,20.56,0,0,1-4.16,5.83Q487.06,295.59,477.54,295.59ZM487,272.07q.59-2.85,1.53-10.67a109,109,0,0,0,.94-11.57q0-9.14-6.61-9.13a6,6,0,0,0-5.13,3q-2,3-3.25,9.83A135.8,135.8,0,0,0,472,276.15q0,8.7,6.55,8.7a6.13,6.13,0,0,0,5.19-3Q485.83,278.89,487,272.07Z" transform="translate(-53.62 -198)"/><path class="cls-2" d="M542.12,242.58l-6.07-.27a6.28,6.28,0,0,0-4,1.18,4.11,4.11,0,0,0-1.48,3.41,17.15,17.15,0,0,0,.81,4.92,43.08,43.08,0,0,0,3.73,8.38c1.77,3.18,3,5.44,3.68,6.76a26.13,26.13,0,0,1,3.11,11.77q0,8.1-4.75,12.48t-14.42,4.38a45.21,45.21,0,0,1-7.63-.51,10.89,10.89,0,0,1-3.14-.8,1.3,1.3,0,0,1-.29-.95L513,283.4c.07-.9.39-1.34.94-1.34a15.94,15.94,0,0,1,3.2.59,17.48,17.48,0,0,0,4.13.59q6.56,0,6.56-5.21a15.46,15.46,0,0,0-1.59-6.93q-1.57-3.23-3.44-6.66t-2.87-5.51a37.63,37.63,0,0,1-2.12-5.72,23.59,23.59,0,0,1-1.1-6.87q0-7.51,4.48-12.14t13.08-4.62a53.54,53.54,0,0,1,8.65.54c.89.14,1.34.61,1.34,1.39l-1.18,9.56C543.09,242.08,542.77,242.58,542.12,242.58Z" transform="translate(-53.62 -198)"/><rect class="cls-3" x="16.38" width="110" height="111.5" rx="10"/><g class="cls-4"><path class="cls-2" d="M124.78,285.41A65.67,65.67,0,0,0,110.94,274a58.08,58.08,0,0,0-8-3.87,58.82,58.82,0,0,0-8.47-2.44A59.25,59.25,0,0,0,77,267.07a64.83,64.83,0,0,0-8.65,1.58c-1.43.34-2.84.74-4.23,1.19s-2.8,1-4,1.5l-6.44,2.84,4-5.75c2.27-3.24,4.5-6.52,6.8-9.74L71.31,249c2.28-3.24,4.62-6.44,6.94-9.65s4.62-6.43,7-9.61l.32-.44.4-.13a32.47,32.47,0,0,1,5.42-1.29,38.17,38.17,0,0,1,5.44-.48,36.21,36.21,0,0,1,10.76,1.47,32.09,32.09,0,0,1,9.61,4.85,35.3,35.3,0,0,1,7.41,7.59,39.21,39.21,0,0,0-8-6.64,31.88,31.88,0,0,0-9.49-3.84,33.85,33.85,0,0,0-10.13-.74,38.74,38.74,0,0,0-5,.69,30.06,30.06,0,0,0-4.77,1.37l.72-.57c-2.18,3.3-4.43,6.56-6.66,9.84s-4.44,6.55-6.71,9.8L67.7,261c-2.25,3.27-4.57,6.48-6.85,9.71l-2.42-2.9a46,46,0,0,1,4.48-1.63q2.24-.7,4.5-1.23a65.16,65.16,0,0,1,9.2-1.43,59.06,59.06,0,0,1,9.31-.07,58.33,58.33,0,0,1,9.2,1.45,51.78,51.78,0,0,1,8.77,3.07,52.87,52.87,0,0,1,8,4.59A56.63,56.63,0,0,1,124.78,285.41Z" transform="translate(-53.62 -198)"/><path class="cls-2" d="M126.47,285.41a56.38,56.38,0,0,1,12.87-12.88,52.49,52.49,0,0,1,8-4.59,51.78,51.78,0,0,1,8.77-3.07,58,58,0,0,1,9.19-1.45,59.05,59.05,0,0,1,9.31.07,64.94,64.94,0,0,1,9.2,1.43c1.52.35,3,.76,4.51,1.23a45.81,45.81,0,0,1,4.47,1.63l-2.41,2.9c-2.28-3.23-4.61-6.44-6.85-9.71l-6.78-9.75c-2.27-3.25-4.48-6.53-6.72-9.8s-4.47-6.54-6.66-9.84l.73.57a29.88,29.88,0,0,0-4.78-1.37,38.5,38.5,0,0,0-5-.69,33.78,33.78,0,0,0-10.12.74,31.94,31.94,0,0,0-9.5,3.84,39.15,39.15,0,0,0-8,6.64,35.49,35.49,0,0,1,7.4-7.59,32.21,32.21,0,0,1,9.61-4.85,36.28,36.28,0,0,1,10.77-1.47,38.3,38.3,0,0,1,5.44.48,32.13,32.13,0,0,1,5.41,1.29l.41.13.32.44c2.36,3.18,4.66,6.4,7,9.61s4.65,6.41,6.93,9.65l6.87,9.69c2.31,3.22,4.53,6.5,6.8,9.74l4,5.75-6.43-2.84c-1.23-.54-2.66-1-4-1.5s-2.8-.85-4.22-1.19a65.42,65.42,0,0,0-8.65-1.58,59.23,59.23,0,0,0-17.53.64,58.46,58.46,0,0,0-8.47,2.44,57.53,57.53,0,0,0-8,3.87A65.42,65.42,0,0,0,126.47,285.41Z" transform="translate(-53.62 -198)"/><path class="cls-2" d="M126,290.81a78.84,78.84,0,0,0-14.25-10.73,62.11,62.11,0,0,0-7.93-3.63,57,57,0,0,0-8.37-2.29,64.75,64.75,0,0,0-17.44-.71A88.34,88.34,0,0,0,60.51,277a48.57,48.57,0,0,1,17.1-6.59,50,50,0,0,1,18.62-.13,48.12,48.12,0,0,1,9,2.69,46.78,46.78,0,0,1,8.21,4.52A46,46,0,0,1,126,290.81Z" transform="translate(-53.62 -198)"/><path class="cls-2" d="M125.38,290.81a44.66,44.66,0,0,1,20.8-17.89,47.9,47.9,0,0,1,9-2.69,50,50,0,0,1,18.61.13A48.7,48.7,0,0,1,190.91,277a88.63,88.63,0,0,0-17.54-3.5,64.75,64.75,0,0,0-17.44.71,56.31,56.31,0,0,0-8.37,2.29,61.61,61.61,0,0,0-7.94,3.63A78.77,78.77,0,0,0,125.38,290.81Z" transform="translate(-53.62 -198)"/></g></svg>